<svg id="Layer_1" data-name="Layer 1" xmlns="http://www.w3.org/2000/svg" viewBox="0 0 111.84 16.77"><defs><style>.cls-1{fill:#e81d2c;}</style></defs><path class="cls-1" d="M7.16,0a7.17,7.17,0,1,0,7.17,7.16A7.17,7.17,0,0,0,7.16,0Zm0,11.92a4.76,4.76,0,1,1,4.75-4.76A4.76,4.76,0,0,1,7.16,11.93Z"/><path class="cls-1" d="M23.34,0a7.17,7.17,0,0,0-7.17,7.16v9.3a.3.3,0,0,0,.31.3h1.81a.3.3,0,0,0,.3-.3v-3.9l.48.36A7.16,7.16,0,1,0,23.34,0Zm0,11.92a4.76,4.76,0,1,1,4.75-4.76A4.76,4.76,0,0,1,23.34,11.93Z"/><path class="cls-1" d="M99.62,16.76a.29.29,0,0,0,.3-.3v-3.9l.48.35a7.09,7.09,0,0,0,4.27,1.42,7.17,7.17,0,1,0-7.16-7.17v9.3a.29.29,0,0,0,.3.3Zm9.8-9.6a4.75,4.75,0,1,1-4.75-4.75A4.75,4.75,0,0,1,109.42,7.16Z"/><path class="cls-1" d="M65,0a.32.32,0,0,0-.33.3V2.12a.29.29,0,0,0,.3.3h5.66V14a.3.3,0,0,0,.3.3h1.81a.31.31,0,0,0,.3-.3V2.42h5.65a.3.3,0,0,0,.31-.3V.31a.31.31,0,0,0-.31-.3Z"/><path class="cls-1" d="M55.69,2.42a4.76,4.76,0,0,1,4.75,4.75V14a.3.3,0,0,0,.3.3h1.81a.3.3,0,0,0,.3-.3V7.17a7.17,7.17,0,0,0-14.33,0V14a.31.31,0,0,0,.31.3h1.81a.31.31,0,0,0,.3-.3V7.17A4.76,4.76,0,0,1,55.69,2.42Z"/><path class="cls-1" d="M88,2.42a4.76,4.76,0,0,1,4.75,4.75V14a.3.3,0,0,0,.3.3H94.9a.3.3,0,0,0,.3-.3V7.17a7.17,7.17,0,0,0-14.33,0V14a.31.31,0,0,0,.3.3H83a.31.31,0,0,0,.31-.3V7.17A4.76,4.76,0,0,1,88,2.42Z"/><path class="cls-1" d="M39.5,0,39,0a7.16,7.16,0,0,0-.13,14.28.3.3,0,0,0,.24-.08.28.28,0,0,0,.1-.22V12.19a.3.3,0,0,0-.25-.3,4.76,4.76,0,0,1-4.19-5h0a4.75,4.75,0,0,1,9.46-.3.3.3,0,0,0,.3.25h1.82a.31.31,0,0,0,.22-.09.33.33,0,0,0,.08-.25A7.2,7.2,0,0,0,39.5,0Z"/><path class="cls-1" d="M39.51,6a1.21,1.21,0,1,0,1.21,1.2A1.2,1.2,0,0,0,39.51,6Z"/><path class="cls-1" d="M88,6a1.21,1.21,0,1,0,1.2,1.2A1.21,1.21,0,0,0,88,6Z"/></svg>